<svg width="185" height="341" viewBox="0 0 185 341" fill="none" xmlns="http://www.w3.org/2000/svg">
<path d="M1.06509 339.118H22.8672V327.89H14.896V282.392H1.06509V339.118Z" fill="black"/>
<path d="M31.2135 339.118H45.0833V282.392H31.2135V339.118Z" fill="black"/>
<path d="M55.2918 322.677C55.2918 328.132 57.5775 332.43 62.1488 335.573C66.7461 338.716 72.7849 340.287 80.2653 340.287C87.8495 340.287 93.8624 338.69 98.3038 335.495C102.771 332.3 105.005 328.132 105.005 322.989C105.005 317.69 103.135 313.573 99.3947 310.638C95.6546 307.677 90.304 305.47 83.3431 304.015C77.3173 302.794 73.6161 301.768 72.2395 300.937C70.8629 300.08 70.1746 298.522 70.1746 296.262C70.1746 294.704 70.9668 293.379 72.5512 292.288C74.1615 291.197 76.629 290.652 79.9536 290.652C83.3302 290.652 85.8626 291.379 87.5508 292.834C89.2391 294.288 90.0833 296.21 90.0833 298.6V299.496H103.992V298.6C103.992 293.821 101.823 289.73 97.4857 286.327C93.1481 282.925 87.3171 281.224 79.9926 281.224C72.5642 281.224 66.7331 282.808 62.4995 285.977C58.2918 289.119 56.1879 293.119 56.1879 297.976C56.1879 302.963 57.8632 306.833 61.2138 309.587C64.5903 312.34 69.6681 314.418 76.4472 315.82C83.2782 317.223 87.421 318.404 88.8755 319.366C90.356 320.301 91.0702 321.846 91.0183 324.002C91.0183 326.028 90.0962 327.677 88.2521 328.95C86.408 330.222 83.7457 330.859 80.2653 330.859C76.8108 330.859 74.1096 330.17 72.1616 328.794C70.2395 327.417 69.2785 325.378 69.2785 322.677V321.781H55.2918V322.677Z" fill="black"/>
<path d="M111.512 322.677C111.512 328.132 113.798 332.43 118.369 335.573C122.967 338.716 129.005 340.287 136.486 340.287C144.07 340.287 150.083 338.69 154.524 335.495C158.992 332.3 161.225 328.132 161.225 322.989C161.225 317.69 159.355 313.573 155.615 310.638C151.875 307.677 146.525 305.47 139.564 304.015C133.538 302.794 129.837 301.768 128.46 300.937C127.083 300.08 126.395 298.522 126.395 296.262C126.395 294.704 127.187 293.379 128.772 292.288C130.382 291.197 132.85 290.652 136.174 290.652C139.551 290.652 142.083 291.379 143.771 292.834C145.46 294.288 146.304 296.21 146.304 298.6V299.496H160.213V298.6C160.213 293.821 158.044 289.73 153.706 286.327C149.369 282.925 143.538 281.224 136.213 281.224C128.785 281.224 122.954 282.808 118.72 285.977C114.512 289.119 112.408 293.119 112.408 297.976C112.408 302.963 114.084 306.833 117.434 309.587C120.811 312.34 125.889 314.418 132.668 315.82C139.499 317.223 143.641 318.404 145.096 319.366C146.576 320.301 147.291 321.846 147.239 324.002C147.239 326.028 146.317 327.677 144.473 328.95C142.628 330.222 139.966 330.859 136.486 330.859C133.031 330.859 130.33 330.17 128.382 328.794C126.46 327.417 125.499 325.378 125.499 322.677V321.781H111.512V322.677Z" fill="black"/>
<path d="M170.967 339.118H184.836V282.392H170.967V339.118Z" fill="black"/>
<mask id="mask0_169_15798" style="mask-type:alpha" maskUnits="userSpaceOnUse" x="0" y="0" width="185" height="231">
<path fill-rule="evenodd" clip-rule="evenodd" d="M77.6297 1.1901C82.4754 0.406523 87.4429 0 92.5 0C97.557 0 102.525 0.406523 107.37 1.1901C151.388 8.30809 185 46.4717 185 92.5V138.498C185 184.566 151.33 222.756 107.255 229.826C102.446 230.597 97.517 230.998 92.5 230.998C87.4829 230.998 82.554 230.597 77.7447 229.826C33.67 222.756 0 184.566 0 138.498V92.5C0 46.4717 33.6116 8.3081 77.6297 1.1901Z" fill="white"/>
</mask>
<g mask="url(#mask0_169_15798)">
<path fill-rule="evenodd" clip-rule="evenodd" d="M153.876 23.3172C141.238 39.2048 134.699 46.8348 123.154 59.8226C122.336 60.7431 121.537 61.6176 120.76 62.4691C117.744 65.7735 115.045 68.7305 112.728 72.6786C110.003 77.3222 107.855 83.3945 107.855 92.4472C107.855 100.595 110.865 105.947 114.798 112.327C115.001 112.656 115.207 112.989 115.417 113.327C119.205 119.438 123.98 127.14 123.98 137.954C123.98 153.754 112.589 166.98 97.4883 169.438C95.8424 169.706 94.1581 169.845 92.4471 169.845C90.7362 169.845 89.052 169.706 87.406 169.438C72.3051 166.98 60.9148 153.754 60.9148 137.954C60.9148 134.002 60.8645 126.78 60.8139 119.746L60.8035 118.305C60.7567 111.825 60.7126 105.708 60.7125 102.839C60.7125 102.404 60.7121 101.974 60.7117 101.547C60.7058 95.5583 60.7007 90.2795 61.8686 85.7857C63.3215 80.1959 66.3776 76.2098 70.9651 72.132L80.9635 83.3801C77.6861 86.2934 76.8787 87.8614 76.4342 89.5714C75.7882 92.057 75.7621 95.3877 75.7621 102.839C75.7621 105.65 75.8059 111.719 75.853 118.245L75.863 119.637C75.9135 126.645 75.9643 133.935 75.9643 137.954C75.9643 146.421 82.05 153.319 89.8243 154.584C90.674 154.723 91.5496 154.795 92.4471 154.795C93.3447 154.795 94.2203 154.723 95.07 154.584C102.844 153.319 108.93 146.421 108.93 137.954C108.93 131.487 106.216 127.085 102.058 120.339L101.987 120.224C97.8577 113.526 92.8055 105.082 92.8055 92.4472C92.8055 80.7173 95.6677 72.0157 99.748 65.0622C102.949 59.6076 106.954 55.2415 110.047 51.8696C110.715 51.1418 111.34 50.4603 111.906 49.8242C123.294 37.0128 129.654 29.5933 142.098 13.9485L153.876 23.3172Z" fill="black"/>
<path fill-rule="evenodd" clip-rule="evenodd" d="M104.968 16.0467C100.913 15.391 96.7493 15.0495 92.5 15.0495V0C97.557 0 102.525 0.406523 107.37 1.1901C112.7 2.05204 117.88 3.3696 122.866 5.10172L117.927 19.3178C113.759 17.8698 109.428 16.7679 104.968 16.0467ZM80.0321 16.0467C43.1868 22.0048 15.0495 53.9737 15.0495 92.5V138.498C15.0495 177.058 43.2358 209.048 80.1283 214.966C84.1523 215.612 88.2843 215.948 92.5 215.948V230.998C87.4829 230.998 82.554 230.597 77.7447 229.826C33.67 222.756 0 184.566 0 138.498V92.5C0 46.4717 33.6116 8.3081 77.6297 1.1901L80.0321 16.0467ZM169.95 92.5C169.95 87.4486 169.468 82.5171 168.548 77.7468L183.326 74.8985C184.425 80.6026 185 86.4878 185 92.5V121.471H169.95V92.5ZM105.851 214.803C142.262 208.481 169.95 176.715 169.95 138.498H185C185 184.158 151.924 222.078 108.426 229.631L105.851 214.803Z" fill="black"/>
<path fill-rule="evenodd" clip-rule="evenodd" d="M121.279 2.46204L127.012 6.40358L118.08 19.3956L112.347 15.454L121.279 2.46204Z" fill="black"/>
<path fill-rule="evenodd" clip-rule="evenodd" d="M92.4472 45.8652C66.3464 45.8652 45.1486 67.0945 45.1486 93.3302V137.596C45.1486 147.807 48.3532 157.243 53.8065 164.977L41.5072 173.65C34.3211 163.458 30.0991 151.009 30.0991 137.596V93.3302C30.0991 58.8259 57.9918 30.8157 92.4472 30.8157C93.4324 30.8157 95.7381 30.9391 98.2657 31.3712C100.483 31.7503 104.371 32.592 107.353 34.8289L98.3236 46.8685C98.3822 46.9125 98.4149 46.9325 98.4144 46.9334C98.4132 46.9353 98.2403 46.8378 97.8108 46.6962C97.2539 46.5126 96.5393 46.3439 95.7299 46.2055C94.9365 46.0699 94.1613 45.9818 93.5248 45.9287C93.2101 45.9024 92.9436 45.8858 92.7422 45.876C92.5661 45.8675 92.4696 45.8657 92.4492 45.8653C92.4445 45.8652 92.4438 45.8652 92.4472 45.8652ZM169.877 50.1815C166.671 53.83 162.741 58.2354 160.474 60.5024C152.67 68.3071 148.343 73.0449 145.81 77.3029C143.558 81.089 142.612 84.7044 142.612 90.6555C142.612 94.8184 144.302 98.3315 147.204 104.362C147.449 104.872 147.703 105.401 147.966 105.949C151.154 112.606 154.795 121.011 154.795 132.579V137.596C154.795 172.1 126.903 200.11 92.4472 200.11C79.8112 200.11 68.0335 196.333 58.2027 189.844L66.4935 177.284C73.9421 182.201 82.851 185.061 92.4472 185.061C118.548 185.061 139.746 163.831 139.746 137.596V132.579C139.746 124.44 137.296 118.511 134.392 112.449C134.105 111.849 133.803 111.231 133.492 110.595C130.847 105.191 127.563 98.4777 127.563 90.6555C127.563 82.6321 128.946 76.2145 132.875 69.6092C136.524 63.4758 142.23 57.4639 149.833 49.8608C151.69 48.0032 155.285 43.9881 158.573 40.2471C160.181 38.4168 161.664 36.7123 162.744 35.4647C163.284 34.8413 163.723 34.3329 164.027 33.9809C164.179 33.805 164.296 33.6682 164.376 33.5758L164.494 33.4386L164.495 33.4372L170.203 38.3404C175.911 43.244 175.911 43.2441 175.911 43.2443L175.91 43.2449L175.783 43.3927C175.7 43.4886 175.579 43.6291 175.424 43.8089C175.114 44.1685 174.668 44.6858 174.119 45.319C173.022 46.5847 171.516 48.3171 169.877 50.1815Z" fill="black"/>
</g>
</svg>
